<?xml version="1.0" encoding="UTF-8" standalone="no"?>
<!-- Created with Inkscape (http://www.inkscape.org/) -->

<svg
   xmlns:osb="http://www.openswatchbook.org/uri/2009/osb"
   xmlns:dc="http://purl.org/dc/elements/1.1/"
   xmlns:cc="http://creativecommons.org/ns#"
   xmlns:rdf="http://www.w3.org/1999/02/22-rdf-syntax-ns#"
   xmlns:svg="http://www.w3.org/2000/svg"
   xmlns="http://www.w3.org/2000/svg"
   xmlns:xlink="http://www.w3.org/1999/xlink"
   xmlns:sodipodi="http://sodipodi.sourceforge.net/DTD/sodipodi-0.dtd"
   xmlns:inkscape="http://www.inkscape.org/namespaces/inkscape"
   id="svg2"
   version="1.1"
   inkscape:version="0.48.1 "
   width="399"
   height="400"
   sodipodi:docname="Protection-civile-en-Algérie.jpg">
  <title
     id="title5805">Reda Kerbouche</title>
  <metadata
     id="metadata8">
    <rdf:RDF>
      <cc:Work
         rdf:about="">
        <dc:format>image/svg+xml</dc:format>
        <dc:type
           rdf:resource="http://purl.org/dc/dcmitype/StillImage" />
        <dc:title>Reda Kerbouche</dc:title>
      </cc:Work>
    </rdf:RDF>
  </metadata>
  <defs
     id="defs6">
    <linearGradient
       inkscape:collect="always"
       id="linearGradient5488">
      <stop
         style="stop-color:#c9cac2;stop-opacity:1;"
         offset="0"
         id="stop5490" />
      <stop
         style="stop-color:#c9cac2;stop-opacity:0;"
         offset="1"
         id="stop5492" />
    </linearGradient>
    <linearGradient
       inkscape:collect="always"
       id="linearGradient5337">
      <stop
         style="stop-color:#241a05;stop-opacity:1;"
         offset="0"
         id="stop5339" />
      <stop
         style="stop-color:#241a05;stop-opacity:0;"
         offset="1"
         id="stop5341" />
    </linearGradient>
    <linearGradient
       inkscape:collect="always"
       id="linearGradient5325">
      <stop
         style="stop-color:#000000;stop-opacity:1;"
         offset="0"
         id="stop5327" />
      <stop
         style="stop-color:#000000;stop-opacity:0;"
         offset="1"
         id="stop5329" />
    </linearGradient>
    <linearGradient
       inkscape:collect="always"
       id="linearGradient5269">
      <stop
         style="stop-color:#000000;stop-opacity:1;"
         offset="0"
         id="stop5271" />
      <stop
         style="stop-color:#000000;stop-opacity:0;"
         offset="1"
         id="stop5273" />
    </linearGradient>
    <linearGradient
       inkscape:collect="always"
       id="linearGradient5251">
      <stop
         style="stop-color:#4d4d4d;stop-opacity:1;"
         offset="0"
         id="stop5253" />
      <stop
         style="stop-color:#4d4d4d;stop-opacity:0;"
         offset="1"
         id="stop5255" />
    </linearGradient>
    <linearGradient
       inkscape:collect="always"
       id="linearGradient3777"
       osb:paint="gradient">
      <stop
         style="stop-color:#cccccc;stop-opacity:1;"
         offset="0"
         id="stop3779" />
      <stop
         style="stop-color:#cccccc;stop-opacity:0;"
         offset="1"
         id="stop3781" />
    </linearGradient>
    <linearGradient
       inkscape:collect="always"
       id="linearGradient2999">
      <stop
         style="stop-color:#ca1608;stop-opacity:1;"
         offset="0"
         id="stop3001" />
      <stop
         style="stop-color:#ca1608;stop-opacity:0;"
         offset="1"
         id="stop3003" />
    </linearGradient>
    <linearGradient
       inkscape:collect="always"
       id="linearGradient2989">
      <stop
         style="stop-color:#710f08;stop-opacity:1;"
         offset="0"
         id="stop2991" />
      <stop
         style="stop-color:#710f08;stop-opacity:0;"
         offset="1"
         id="stop2993" />
    </linearGradient>
    <linearGradient
       inkscape:collect="always"
       xlink:href="#linearGradient5269"
       id="linearGradient5275"
       x1="-229.00334"
       y1="193.66252"
       x2="-89.100281"
       y2="18.588285"
       gradientUnits="userSpaceOnUse" />
    <linearGradient
       inkscape:collect="always"
       xlink:href="#linearGradient5337-4"
       id="linearGradient5343-6"
       x1="-291.80527"
       y1="245.25478"
       x2="-171.32506"
       y2="160.14491"
       gradientUnits="userSpaceOnUse" />
    <linearGradient
       inkscape:collect="always"
       id="linearGradient5337-4">
      <stop
         style="stop-color:#241a05;stop-opacity:1;"
         offset="0"
         id="stop5339-7" />
      <stop
         style="stop-color:#241a05;stop-opacity:0;"
         offset="1"
         id="stop5341-8" />
    </linearGradient>
    <linearGradient
       inkscape:collect="always"
       xlink:href="#linearGradient5337-3"
       id="linearGradient5381-7"
       gradientUnits="userSpaceOnUse"
       gradientTransform="translate(207.80072,261.96155)"
       x1="-291.80527"
       y1="245.25478"
       x2="-171.32506"
       y2="160.14491" />
    <linearGradient
       inkscape:collect="always"
       id="linearGradient5337-3">
      <stop
         style="stop-color:#241a05;stop-opacity:1;"
         offset="0"
         id="stop5339-1" />
      <stop
         style="stop-color:#241a05;stop-opacity:0;"
         offset="1"
         id="stop5341-1" />
    </linearGradient>
    <linearGradient
       inkscape:collect="always"
       xlink:href="#linearGradient2989"
       id="linearGradient5448"
       gradientUnits="userSpaceOnUse"
       x1="233.8549"
       y1="118.48585"
       x2="255.50328"
       y2="71.699211" />
    <linearGradient
       inkscape:collect="always"
       xlink:href="#linearGradient2999"
       id="linearGradient5450"
       gradientUnits="userSpaceOnUse"
       x1="236.59955"
       y1="149.29008"
       x2="262.16348"
       y2="97.51593" />
    <linearGradient
       inkscape:collect="always"
       xlink:href="#linearGradient5488"
       id="linearGradient5494"
       x1="186.28708"
       y1="229.59213"
       x2="187.74701"
       y2="212.7052"
       gradientUnits="userSpaceOnUse" />
    <linearGradient
       inkscape:collect="always"
       xlink:href="#linearGradient5251"
       id="linearGradient5512"
       gradientUnits="userSpaceOnUse"
       x1="186.42758"
       y1="219.8537"
       x2="200.31631"
       y2="191.61839" />
    <linearGradient
       inkscape:collect="always"
       xlink:href="#linearGradient5325"
       id="linearGradient5514"
       gradientUnits="userSpaceOnUse"
       x1="215.54961"
       y1="156.25826"
       x2="227.20601"
       y2="130.40144" />
    <linearGradient
       inkscape:collect="always"
       xlink:href="#linearGradient5337"
       id="linearGradient5516"
       gradientUnits="userSpaceOnUse"
       gradientTransform="translate(1.6251043,-7.3985798)"
       x1="-291.80527"
       y1="245.25478"
       x2="-171.32506"
       y2="160.14491" />
  </defs>
  <sodipodi:namedview
     pagecolor="#ffffff"
     bordercolor="#666666"
     borderopacity="1"
     objecttolerance="10"
     gridtolerance="10"
     guidetolerance="10"
     inkscape:pageopacity="0"
     inkscape:pageshadow="2"
     inkscape:window-width="1280"
     inkscape:window-height="750"
     id="namedview4"
     showgrid="false"
     showguides="true"
     inkscape:guide-bbox="true"
     inkscape:zoom="0.31986432"
     inkscape:cx="196.57202"
     inkscape:cy="254.778"
     inkscape:window-x="-8"
     inkscape:window-y="-8"
     inkscape:window-maximized="1"
     inkscape:current-layer="svg2" />
  <path
     sodipodi:type="arc"
     style="fill:url(#linearGradient5448);fill-opacity:1;fill-rule:evenodd;stroke:#000000;stroke-width:0;stroke-linecap:butt;stroke-linejoin:miter;stroke-miterlimit:4;stroke-opacity:0;stroke-dasharray:none;stroke-dashoffset:0"
     id="path2987"
     sodipodi:cx="191.87823"
     sodipodi:cy="217.10995"
     sodipodi:rx="128.57014"
     sodipodi:ry="130.52409"
     d="m 320.44838,217.10995 a 128.57014,130.52409 0 1 1 -257.14029,0 128.57014,130.52409 0 1 1 257.14029,0 z"
     transform="matrix(1.4802432,0,0,1.4700598,-79.64291,-116.51394)" />
  <path
     sodipodi:type="arc"
     style="fill:url(#linearGradient5450);fill-opacity:1;fill-rule:evenodd;stroke:#000000;stroke-width:0;stroke-linecap:butt;stroke-linejoin:miter;stroke-miterlimit:4;stroke-opacity:0;stroke-dasharray:none;stroke-dashoffset:0"
     id="path2997"
     sodipodi:cx="210.63618"
     sodipodi:cy="217.10995"
     sodipodi:rx="90.272652"
     sodipodi:ry="96.916092"
     d="m 300.90884,217.10995 a 90.272652,96.916092 0 1 1 -180.54531,0 90.272652,96.916092 0 1 1 180.54531,0 z"
     transform="matrix(1.9567099,0,0,1.8266129,-208.94276,-195.48831)" />
  <path
     sodipodi:type="arc"
     style="fill:#000000;fill-opacity:1;fill-rule:nonzero;stroke:#000000;stroke-width:0;stroke-linecap:butt;stroke-linejoin:miter;stroke-miterlimit:4;stroke-opacity:0.98936169;stroke-dasharray:none;stroke-dashoffset:0"
     id="path3007"
     sodipodi:cx="206.33748"
     sodipodi:cy="219.4547"
     sodipodi:rx="84.410789"
     sodipodi:ry="88.318695"
     d="m 290.74827,219.4547 a 84.410789,88.318695 0 1 1 -168.82158,0 84.410789,88.318695 0 1 1 168.82158,0 z"
     transform="matrix(1.7870371,0,0,1.7256637,-165.52158,-177.22671)" />
  <path
     sodipodi:type="arc"
     style="fill:#f9f9f9;fill-opacity:1;fill-rule:nonzero;stroke:#000000;stroke-width:0;stroke-linecap:butt;stroke-linejoin:miter;stroke-miterlimit:4;stroke-opacity:0.98936169;stroke-dasharray:none;stroke-dashoffset:0"
     id="path3007-6"
     sodipodi:cx="206.33748"
     sodipodi:cy="219.4547"
     sodipodi:rx="84.410789"
     sodipodi:ry="88.318695"
     d="m 290.74827,219.4547 a 84.410789,88.318695 0 1 1 -168.82158,0 84.410789,88.318695 0 1 1 168.82158,0 z"
     transform="matrix(1.7453704,0,0,1.6902655,-157.31496,-170.23996)" />
  <path
     sodipodi:type="arc"
     style="fill:url(#linearGradient5494);fill-opacity:1;fill-rule:nonzero;stroke:#000000;stroke-width:0;stroke-linecap:round;stroke-linejoin:miter;stroke-miterlimit:4;stroke-opacity:0.98936169;stroke-dasharray:none;stroke-dashoffset:0"
     id="path5486"
     sodipodi:cx="206.6954"
     sodipodi:cy="219.27969"
     sodipodi:rx="138.16537"
     sodipodi:ry="25.97509"
     d="m 344.86078,219.27969 a 138.16537,25.97509 0 1 1 -276.330751,0 138.16537,25.97509 0 1 1 276.330751,0 z"
     transform="matrix(1.0707107,0,0,5.73912,-18.13269,-1057.5598)" />
  <g
     transform="translate(423.06445,9.0159539)"
     id="g5496">
    <path
       sodipodi:type="arc"
       style="fill:url(#linearGradient5512);fill-opacity:1;fill-rule:nonzero;stroke:#000000;stroke-width:0;stroke-linecap:butt;stroke-linejoin:miter;stroke-miterlimit:4;stroke-opacity:0.98936169;stroke-dasharray:none;stroke-dashoffset:0"
       id="path5498"
       sodipodi:cx="200.08484"
       sodipodi:cy="201.47833"
       sodipodi:rx="66.434418"
       sodipodi:ry="64.089676"
       d="m 266.51926,201.47833 c 0,35.39575 -29.74371,64.08968 -66.43442,64.08968 -36.69072,0 -66.43442,-28.69393 -66.43442,-64.08968 0,-35.39575 29.7437,-64.08967 66.43442,-64.08967 36.69071,0 66.43442,28.69392 66.43442,64.08967 z"
       transform="matrix(1.6882353,0,0,1.7439024,-557.02385,-158.47762)" />
    <path
       sodipodi:type="arc"
       style="fill:url(#linearGradient5514);fill-opacity:1;fill-rule:nonzero;stroke:#000000;stroke-width:0;stroke-linecap:butt;stroke-linejoin:miter;stroke-miterlimit:4;stroke-opacity:0;stroke-dasharray:none;stroke-dashoffset:0"
       id="path5500"
       sodipodi:cx="202.03879"
       sodipodi:cy="205.38623"
       sodipodi:rx="70.733116"
       sodipodi:ry="68.77916"
       d="m 272.7719,205.38623 c 0,37.98568 -31.66829,68.77916 -70.73311,68.77916 -39.06482,0 -70.73312,-30.79348 -70.73312,-68.77916 0,-37.98568 31.6683,-68.77916 70.73312,-68.77916 39.06482,0 70.73311,30.79348 70.73311,68.77916 z"
       transform="matrix(1.4751381,0,0,1.5113636,-515.70553,-119.87711)" />
    <path
       style="fill:#fbbf05;fill-opacity:1;stroke:#000000;stroke-width:0;stroke-linecap:butt;stroke-linejoin:miter;stroke-miterlimit:4;stroke-opacity:1;stroke-dasharray:none"
       d="m -225.84346,83.371539 c 1.77168,-2.40833 4.71786,-5.577446 8.53036,-0.414496 l 94.04238,148.772727 c 2.88694,5.9964 1.53731,9.56762 -5.47107,10.35595 l -175.07423,6.83884 c -6.81194,0.12568 -6.07666,-3.4419 -4.68949,-7.42502 z"
       id="path5502"
       inkscape:connector-curvature="0"
       sodipodi:nodetypes="ccccccc" />
    <path
       sodipodi:nodetypes="ccccccc"
       inkscape:connector-curvature="0"
       id="path5504"
       d="m -224.95623,80.951589 c 1.77168,-2.40833 3.61254,-5.16295 7.42504,0 l 94.18054,150.845211 c 2.88694,5.9964 1.53731,9.56762 -5.47107,10.35595 l -175.07424,6.83884 c -6.81194,0.12568 -6.07666,-3.4419 -4.68949,-7.42502 z"
       style="fill:url(#linearGradient5516);fill-opacity:1;stroke:#000000;stroke-width:0;stroke-linecap:butt;stroke-linejoin:miter;stroke-miterlimit:4;stroke-opacity:1;stroke-dasharray:none" />
    <path
       style="fill:#f4c200;fill-opacity:1;stroke:#000000;stroke-width:0;stroke-linecap:butt;stroke-linejoin:miter;stroke-miterlimit:4;stroke-opacity:1;stroke-dasharray:none"
       d="m -303.67296,243.77361 81.7939,-157.508519 94.50513,150.876579 z"
       id="path5506"
       inkscape:connector-curvature="0"
       sodipodi:nodetypes="cccc" />
    <path
       sodipodi:type="arc"
       style="fill:#000000;fill-opacity:1;fill-rule:nonzero;stroke:#000000;stroke-width:0;stroke-linecap:round;stroke-linejoin:miter;stroke-miterlimit:4;stroke-opacity:0.98936169;stroke-dasharray:none;stroke-dashoffset:0"
       id="path5508"
       sodipodi:cx="204.48476"
       sodipodi:cy="201.31819"
       sodipodi:rx="33.159691"
       sodipodi:ry="36.199329"
       d="m 237.64445,201.31819 c 0,19.99234 -14.8461,36.19933 -33.15969,36.19933 -18.3136,0 -33.15969,-16.20699 -33.15969,-36.19933 0,-19.99234 14.84609,-36.19933 33.15969,-36.19933 18.31359,0 33.15969,16.20699 33.15969,36.19933 z"
       transform="matrix(1.7416666,0,0,1.6030534,-574.16923,-134.39317)" />
    <path
       sodipodi:type="arc"
       style="fill:#f2f2f2;fill-opacity:1;fill-rule:nonzero;stroke:#000000;stroke-width:0;stroke-linecap:round;stroke-linejoin:miter;stroke-miterlimit:4;stroke-opacity:0.98936169;stroke-dasharray:none;stroke-dashoffset:0"
       id="path5510"
       sodipodi:cx="201.99777"
       sodipodi:cy="199.93654"
       sodipodi:rx="31.778036"
       sodipodi:ry="33.712353"
       d="m 233.77581,199.93654 c 0,18.61882 -14.22751,33.71235 -31.77804,33.71235 -17.55052,0 -31.77803,-15.09353 -31.77803,-33.71235 0,-18.61882 14.22751,-33.71235 31.77803,-33.71235 17.55053,0 31.77804,15.09353 31.77804,33.71235 z"
       transform="matrix(1.7043478,0,0,1.6147541,-562.02309,-134.24136)" />
  </g>
  <path
     style="fill:none;stroke:#000000;stroke-width:2;stroke-linecap:butt;stroke-linejoin:miter;stroke-opacity:0.95212748999999997;stroke-miterlimit:4;stroke-dasharray:none"
     d="m 161.64534,229.94212 c 0,0 -0.16223,-5.04912 -0.82899,-7.46093 -0.94453,-3.41659 -3.69866,-6.20127 -4.42129,-9.67158 -1.03294,-4.9605 -1.07878,-10.55564 0.27633,-15.19819 1.08207,-3.70712 1.15017,-7.55304 4.42129,-11.32956 2.71848,-2.82308 4.8822,-4.72785 8.70442,-6.07927 0.69714,0.44261 4.11532,-0.63854 1.93432,3.86863 0,0 -1.97068,7.01668 -2.62515,10.7769 -0.5528,3.17611 -0.50712,8.27559 0,9.67157 0.52593,1.44776 0.29461,3.97901 2.21065,3.86863 1.87798,-0.10819 2.76331,-1.99416 2.76331,-4.55945 l 0,-7.87543 c 0,-2.49997 1.78084,-2.59698 2.48697,-2.48698 1.06528,0.16595 1.86381,1.07349 1.93432,2.21065 0.42774,6.89854 0.71754,13.81653 -0.82899,20.7248 0,0 -1.03991,1.88476 -1.65798,2.76331 -0.75325,1.07072 -2.09451,1.79072 -2.48698,3.03964 -1.44019,4.58292 0.15441,9.66037 1.10532,14.3692 0.51891,2.56963 4.12383,5.41325 2.48698,7.46093 -0.578,0.72307 -2.76331,-0.27633 -2.76331,-0.27633"
     id="path5518"
     inkscape:connector-curvature="0"
     sodipodi:nodetypes="caascccssssssscssasc" />
  <path
     style="fill:none;stroke:#000000;stroke-width:2;stroke-linecap:butt;stroke-linejoin:miter;stroke-opacity:0.95212748999999997;stroke-miterlimit:4;stroke-dasharray:none"
     d="m 251.4007,229.2332 c 0,0 -0.23449,-5.05485 0.0474,-7.55862 0.39183,-3.48013 1.92268,-6.77311 2.27194,-10.25777 0.50531,-5.04164 1.07878,-10.55564 -0.27633,-15.19819 -1.08207,-3.70712 -1.15017,-7.55304 -4.42129,-11.32956 -2.71848,-2.82308 -6.34767,-5.31404 -10.16989,-6.66546 -0.69714,0.44261 -3.82222,-0.34544 -1.64122,4.16173 0,0 2.45917,7.01668 3.11364,10.7769 0.5528,3.17611 0.50712,8.56868 0,9.96466 -0.52593,1.44776 0.0962,2.80664 -1.81986,2.69626 -1.87798,-0.10819 -1.3724,-1.06873 -1.88403,-3.58248 l -1.56317,-7.68003 c -0.49861,-2.44974 -1.68314,-3.37856 -2.38927,-3.26856 -1.06528,0.16595 -0.98453,1.85507 -1.05504,2.99223 -0.42774,6.89854 0.16174,12.93725 1.70827,19.84552 0,0 1.13761,1.88476 1.75568,2.76331 0.75325,1.07072 2.27581,2.04074 2.48698,3.33273 0.76736,4.69506 -0.87276,7.83623 -0.22604,11.34058 0.50715,2.74812 0.0411,0.33112 -0.33764,6.09316 -0.0607,0.9237 -0.7538,5.09704 -0.7538,5.09704"
     id="path5518-8"
     inkscape:connector-curvature="0"
     sodipodi:nodetypes="caascccssssssscssssc" />
  <path
     style="fill:none;stroke:#423bbc;stroke-width:1px;stroke-linecap:butt;stroke-linejoin:miter;stroke-opacity:0.95212749"
     d="m 171.9479,183.89274 c 0,0 7.09079,3.66901 10.94214,3.71251 4.77879,0.054 8.90693,-4.01621 13.67767,-4.2987 4.56516,-0.27032 9.03065,3.58741 13.48228,2.54014 2.62483,-0.61751 3.77117,-4.56026 6.44804,-4.88488 4.08371,-0.49523 7.22295,5.058 11.33293,4.88488 3.17332,-0.13366 8.402,-4.49409 8.402,-4.49409"
     id="path5538"
     inkscape:connector-curvature="0"
     sodipodi:nodetypes="cssaasc" />
  <path
     style="fill:none;stroke:#423bbc;stroke-width:1px;stroke-linecap:butt;stroke-linejoin:miter;stroke-opacity:0.95212749"
     d="m 170.67783,189.16841 12.79839,2.93093 13.48228,-1.56316 13.87307,0.78158 3.12633,-1.56316 16.21781,1.17237 7.81581,-3.90791"
     id="path5540"
     inkscape:connector-curvature="0"
     sodipodi:nodetypes="ccccccc" />
  <path
     style="fill:none;stroke:#423bbc;stroke-width:1px;stroke-linecap:butt;stroke-linejoin:miter;stroke-opacity:0.95212749"
     d="m 169.21236,195.03027 4.88488,1.17238"
     id="path5542"
     inkscape:connector-curvature="0" />
  <path
     style="fill:none;stroke:#423bbc;stroke-width:1px;stroke-linecap:butt;stroke-linejoin:miter;stroke-opacity:0.95212749"
     d="m 179.17752,197.57041 32.04484,-1.17237 c 0,0 2.30093,-1.92099 3.71251,-2.14935 3.80814,-0.61607 11.33293,2.34475 11.33293,2.34475 l 4.68949,-0.1954"
     id="path5544"
     inkscape:connector-curvature="0"
     sodipodi:nodetypes="ccscc" />
  <path
     style="fill:none;stroke:#423bbc;stroke-width:1px;stroke-linecap:butt;stroke-linejoin:miter;stroke-opacity:0.95212749"
     d="m 179.76371,204.01846 51.38898,-1.75856"
     id="path5546"
     inkscape:connector-curvature="0" />
  <path
     style="fill:none;stroke:#423bbc;stroke-width:1px;stroke-linecap:butt;stroke-linejoin:miter;stroke-opacity:0.95212749"
     d="m 179.76371,208.90334 51.77977,-0.97697"
     id="path5548"
     inkscape:connector-curvature="0" />
  <path
     style="fill:none;stroke:#423bbc;stroke-width:1px;stroke-linecap:butt;stroke-linejoin:miter;stroke-opacity:0.95212749"
     d="m 178.20054,214.17902 c 0,0 4.84346,2.07634 7.42503,2.34474 13.15007,1.36717 39.46986,-3.90791 39.46986,-3.90791 0,0 2.86059,1.95582 4.49409,1.95396 1.13748,-10e-4 3.12633,-1.36777 3.12633,-1.36777"
     id="path5550"
     inkscape:connector-curvature="0"
     sodipodi:nodetypes="cscsc" />
  <path
     style="fill:none;stroke:#423bbc;stroke-width:1px;stroke-linecap:butt;stroke-linejoin:miter;stroke-opacity:0.95212749"
     d="m 177.02817,218.28232 c 0,0 4.37718,3.54087 7.03424,3.90791 2.51955,0.34805 7.42502,-1.75856 7.42502,-1.75856 l 32.24023,-1.95396 c 0,0 3.13118,1.94553 4.88489,1.95396 2.51578,0.0121 7.03423,-2.73554 7.03423,-2.73554"
     id="path5552"
     inkscape:connector-curvature="0"
     sodipodi:nodetypes="csccsc" />
  <path
     style="fill:none;stroke:#423bbc;stroke-width:1px;stroke-linecap:butt;stroke-linejoin:miter;stroke-opacity:0.95212749"
     d="m 173.70645,224.53497 c 0,0 6.68886,3.71496 10.35596,3.71251 3.46119,-0.002 9.76976,-3.51711 9.76976,-3.51711 l 27.74614,-1.36777 c 0,0 4.89938,2.87838 7.62042,2.93093 3.02719,0.0585 8.5974,-2.93093 8.5974,-2.93093"
     id="path5554"
     inkscape:connector-curvature="0"
     sodipodi:nodetypes="csccsc" />
  <path
     style="fill:none;stroke:#423bbc;stroke-width:1px;stroke-linecap:butt;stroke-linejoin:miter;stroke-opacity:0.95212749"
     d="m 173.12027,229.22446 c 0,0 6.05534,4.27988 9.57437,4.49409 4.58458,0.27907 9.69739,-3.74239 13.09149,-4.2987 0.2598,-0.0426 11.98189,5.15027 21.59118,-0.87927 3.39765,-2.13193 8.13588,3.28405 11.62603,3.41941 2.90257,0.11257 8.2066,-2.93093 8.2066,-2.93093"
     id="path5556"
     inkscape:connector-curvature="0"
     sodipodi:nodetypes="casssc" />
  <path
     style="fill:none;stroke:#423bbc;stroke-width:1px;stroke-linecap:butt;stroke-linejoin:miter;stroke-opacity:0.95212749"
     d="m 175.26962,235.67251 c 0,0 6.88527,3.25259 10.55135,3.12632 4.0988,-0.14117 7.42709,-4.2981 11.52832,-4.2987 3.54475,-5.2e-4 6.42053,3.68322 9.96516,3.71251 4.49064,0.0371 8.21055,-4.5696 12.7007,-4.49409 3.5675,0.06 6.39758,3.96351 9.96516,3.90791 2.47984,-0.0386 6.83884,-2.93093 6.83884,-2.93093"
     id="path5558"
     inkscape:connector-curvature="0"
     sodipodi:nodetypes="csssssc" />
  <path
     style="fill:none;stroke:#423bbc;stroke-width:1px;stroke-linecap:butt;stroke-linejoin:miter;stroke-opacity:0.95212749"
     d="m 177.80976,242.90213 c 0,0 4.94589,2.66721 7.62041,2.54014 4.33994,-0.2062 7.57973,-5.05823 11.91912,-5.27567 3.97019,-0.19894 7.35797,3.75402 11.33293,3.71251 3.9342,-0.0411 7.20313,-3.91484 11.13754,-3.90791 3.21364,0.006 5.87299,3.15427 9.08588,3.22403 2.5541,0.0555 7.32732,-2.24705 7.32732,-2.24705"
     id="path5560"
     inkscape:connector-curvature="0"
     sodipodi:nodetypes="csssasc" />
  <path
     style="fill:#f23306;fill-opacity:1;stroke:#000000;stroke-width:0;stroke-linecap:butt;stroke-linejoin:miter;stroke-miterlimit:4;stroke-opacity:1;stroke-dasharray:none"
     d="m 191.13017,182.39088 -0.1954,-7.81581 -1.17236,-11.13754 c -3.5114,18.04447 -9.73448,36.18654 -3.30005,53.73372 4.53544,2.72176 12.7641,-10.51146 16.58693,-20.12572 l 0.39079,-15.82702 4.88488,5.66646 -0.78158,-8.98818 -6.25265,-13.48228 -4.08163,-16.03428 c 0,0 -0.70822,3.68625 -0.71046,5.55201 -0.0104,8.64165 3.22893,25.7231 3.22893,25.7231 -0.75783,3.50026 -2.4532,6.19691 -4.49409,8.5974 l -10e-6,-8.01121 z"
     id="path5562"
     inkscape:connector-curvature="0"
     sodipodi:nodetypes="ccccccccccscccc" />
  <path
     style="fill:#f23306;fill-opacity:1;stroke:#000000;stroke-width:0;stroke-linecap:butt;stroke-linejoin:miter;stroke-miterlimit:4;stroke-opacity:1;stroke-dasharray:none"
     d="m 204.43382,185.00501 -0.0977,12.21221 c 0.0423,0.0212 -7.27013,13.14316 -11.43063,19.34414 -1.51295,2.25497 -1.96144,5.66312 -0.78158,8.1089 0.96155,1.99324 3.38118,3.28015 5.56877,3.61482 2.87424,0.43971 6.18652,-0.46159 8.402,-2.34475 3.36382,-2.85925 5.56877,-12.01681 5.56877,-12.01681 l 4.59179,-1.36777 3.61481,-18.07407 2.83323,19.05105 c 0,0 1.77827,-1.10886 2.34475,-1.95396 2.05307,-3.06284 1.95395,-10.55134 1.95395,-10.55134 0,0 -0.84971,-8.97089 -3.32172,-12.5053 -4.4265,-6.32889 -8.8599,-17.85423 -8.89049,-18.07408 l -1.56316,-11.23523 c 0,0 -1.43339,6.38646 -1.46546,9.67207 -0.0697,7.14192 3.8102,20.80961 3.8102,20.80961 l -1.56316,15.24083 -1.46546,0.68389 -3.22403,-14.45926 z"
     id="path5564"
     inkscape:connector-curvature="0"
     sodipodi:nodetypes="ccssssccccscsscsccccc" />
  <path
     style="fill:#ff793b;fill-opacity:1;stroke:#000000;stroke-width:0;stroke-linecap:butt;stroke-linejoin:miter;stroke-miterlimit:4;stroke-opacity:1;stroke-dasharray:none"
     d="m 219.89086,194.19386 2.93602,19.34316 c -0.095,3.03028 -0.39366,5.84557 -1.58891,8.60079 0,0 -5.03194,5.91223 -8.56625,6.83919 -3.33965,0.8759 -10.22424,-1.65798 -10.22424,-1.65798 1.30929,-0.3783 2.56991,-0.9026 3.69593,-1.8307 3.00401,-3.35685 4.37203,-7.90613 5.49207,-12.12401 l 4.69762,-1.38165 z"
     id="path5566"
     inkscape:connector-curvature="0"
     sodipodi:nodetypes="cccsccccc" />
  <path
     style="fill:#ffc28d;fill-opacity:1;stroke:#000000;stroke-width:0;stroke-linecap:butt;stroke-linejoin:miter;stroke-miterlimit:4;stroke-opacity:1;stroke-dasharray:none"
     d="m 194.90685,182.81807 -2.34475,0 -4.2987,15.24084 -1.36776,-0.1954 4.68949,9.37898 -0.78159,-9.18358 z"
     id="path5570"
     inkscape:connector-curvature="0"
     sodipodi:nodetypes="ccccccc" />
  <path
     style="fill:#ffc290;fill-opacity:1;stroke:#000000;stroke-width:0;stroke-linecap:butt;stroke-linejoin:miter;stroke-miterlimit:4;stroke-opacity:1;stroke-dasharray:none"
     d="m 205.82201,186.44914 c 0.0696,4.1874 -0.43784,8.4733 -1.79615,12.43488 -1.87313,5.46308 -5.77211,10.00566 -8.56625,15.06003 -1.36576,2.47054 -4.0068,7.46093 -4.0068,7.46093 l -3.03964,-4.69763 c 0,0 6.51113,-7.52936 9.11892,-11.74405 2.07015,-3.34576 4.15632,-6.82219 5.11211,-10.63874 0.78389,-3.13015 0.64064,-6.45269 0.4145,-9.67157 -0.0886,-1.26152 -0.69083,-3.73047 -0.69083,-3.73047 0,0 2.15364,0.77358 2.76331,1.65799 0.74347,1.07852 0.66905,2.55887 0.69083,3.86863 z"
     id="path5590"
     inkscape:connector-curvature="0"
     sodipodi:nodetypes="sssccssscss" />
  <path
     sodipodi:type="star"
     style="fill:#000000;fill-opacity:1;fill-rule:nonzero;stroke:#000000;stroke-width:0;stroke-linecap:round;stroke-linejoin:miter;stroke-miterlimit:4;stroke-opacity:0.95212749;stroke-dasharray:none;stroke-dashoffset:0"
     id="path5610-9"
     sodipodi:sides="5"
     sodipodi:cx="321.64899"
     sodipodi:cy="220.93768"
     sodipodi:r1="14.932091"
     sodipodi:r2="4.9701891"
     sodipodi:arg1="0.8902751"
     sodipodi:arg2="1.5480105"
     inkscape:flatsided="false"
     inkscape:rounded="0"
     inkscape:randomized="0"
     d="m 331.04423,232.54357 -9.282,-6.63699 -8.24781,7.55293 3.44386,-10.87865 -9.73198,-5.51015 11.41043,-0.0864 2.23312,-10.95839 3.60817,10.82527 11.11212,-1.26251 -9.18046,6.77677 z"
     inkscape:transform-center-x="0.21431279"
     inkscape:transform-center-y="-1.2205261"
     transform="matrix(0.99998352,0.00574077,-0.00574077,0.99998352,10.20632,-17.788994)" />
  <path
     sodipodi:type="star"
     style="fill:#000000;fill-opacity:1;fill-rule:nonzero;stroke:#000000;stroke-width:0;stroke-linecap:round;stroke-linejoin:miter;stroke-miterlimit:4;stroke-opacity:0.95212749;stroke-dasharray:none;stroke-dashoffset:0"
     id="path5610-1"
     sodipodi:sides="5"
     sodipodi:cx="321.64899"
     sodipodi:cy="220.93768"
     sodipodi:r1="14.932091"
     sodipodi:r2="4.9701891"
     sodipodi:arg1="0.8902751"
     sodipodi:arg2="1.5480105"
     inkscape:flatsided="false"
     inkscape:rounded="0"
     inkscape:randomized="0"
     d="m 331.04423,232.54357 -9.282,-6.63699 -8.24781,7.55293 3.44386,-10.87865 -9.73198,-5.51015 11.41043,-0.0864 2.23312,-10.95839 3.60817,10.82527 11.11212,-1.26251 -9.18046,6.77677 z"
     inkscape:transform-center-x="0.21431279"
     inkscape:transform-center-y="-1.2205261"
     transform="matrix(0.99998352,0.00574077,-0.00574077,0.99998352,-248.49447,-13.349835)" />
  <path
     inkscape:connector-curvature="0"
     id="path5720"
     style="font-size:32px;font-style:normal;font-variant:normal;font-weight:300;font-stretch:normal;text-align:start;line-height:125%;letter-spacing:0px;word-spacing:0px;writing-mode:lr-tb;text-anchor:start;fill:#000000;fill-opacity:1;stroke:none;font-family:Times New Roman;-inkscape-font-specification:Times New Roman"
     d="m 103.12896,284.11497 -4.583954,3.48869 c -0.99029,0.75369 -1.52069,1.32725 -1.59121,1.72074 -0.11063,0.54535 0.0669,1.10808 0.53244,1.68817 l 0.47165,0.58762 -0.42938,0.32679 -5.26974,-6.56558 0.42938,-0.32678 0.46259,0.57633 c 0.52001,0.64789 1.10851,0.94633 1.76548,0.89535 0.36078,-0.0319 0.98988,-0.3893 1.88733,-1.07232 L 106.96947,277.697 c 0.99026,-0.75367 1.5237,-1.32348 1.60028,-1.70943 0.10457,-0.55288 -0.0759,-1.11937 -0.54151,-1.69946 l -0.46259,-0.57633 0.42939,-0.3268 4.50785,5.61635 c 1.10048,1.37113 1.82313,2.5626 2.16793,3.57444 0.34477,1.01185 0.39056,2.05099 0.13739,3.11746 -0.25322,1.06645 -0.85174,1.95886 -1.79559,2.67721 -1.2843,0.97742 -2.6598,1.35986 -4.12651,1.14729 -1.46674,-0.21257 -2.80478,-1.07223 -4.01411,-2.57896 -0.29631,-0.36914 -0.58967,-0.78906 -0.88019,-1.25968 -0.29053,-0.47061 -0.57814,-0.992 -0.86285,-1.56412 z m 0.66148,-0.50344 c 0.24311,0.45817 0.46926,0.8564 0.67851,1.19472 0.20922,0.33833 0.40154,0.61671 0.5769,0.83519 0.62886,0.78351 1.48295,1.22265 2.56228,1.31745 1.07931,0.0948 2.11412,-0.23464 3.10442,-0.98832 0.6808,-0.51816 1.20443,-1.13511 1.57088,-1.85087 0.36641,-0.71577 0.49514,-1.43266 0.38621,-2.15068 -0.10898,-0.71803 -0.41743,-1.39345 -0.92534,-2.02629 -0.3084,-0.38421 -0.77797,-0.82171 -1.40868,-1.31256 z" />
  <path
     inkscape:connector-curvature="0"
     id="path5722"
     style="font-size:32px;font-style:normal;font-variant:normal;font-weight:300;font-stretch:normal;text-align:start;line-height:125%;letter-spacing:0px;word-spacing:0px;writing-mode:lr-tb;text-anchor:start;fill:#000000;fill-opacity:1;stroke:none;font-family:Times New Roman;-inkscape-font-specification:Times New Roman"
     d="m 121.31698,293.35172 -2.25119,1.78725 c 2.15688,-0.34212 3.58051,-0.0664 4.27085,0.82735 0.31379,0.40621 0.45135,0.83916 0.41269,1.29881 -0.0387,0.45966 -0.21829,0.81673 -0.53884,1.07122 -0.28414,0.22558 -0.59874,0.32043 -0.94376,0.28457 -0.34505,-0.0358 -0.62027,-0.18674 -0.82565,-0.45263 -0.1997,-0.25852 -0.29796,-0.64818 -0.29479,-1.16901 0.004,-0.52084 -0.0552,-0.8588 -0.17496,-1.01391 -0.10271,-0.13293 -0.28681,-0.21912 -0.55232,-0.25855 -0.55545,-0.0952 -1.31251,-0.0483 -2.27118,0.14093 l -4.79742,3.80874 c -0.55369,0.43959 -0.91838,0.84236 -1.09413,1.20825 -0.12255,0.25217 -0.15524,0.55218 -0.0981,0.90003 0.0571,0.34784 0.26257,0.75072 0.6163,1.20865 l -0.39341,0.31234 -4.01367,-5.19595 0.3934,-0.31234 c 0.39937,0.51701 0.77619,0.83746 1.13046,0.96132 0.25919,0.0921 0.5448,0.0738 0.85685,-0.0547 0.15238,-0.0614 0.51996,-0.32348 1.1028,-0.7862 l 3.87947,-3.07997 c 1.16565,-0.92542 1.84101,-1.50038 2.02617,-1.72477 0.18512,-0.22441 0.27875,-0.44174 0.28091,-0.65198 0.002,-0.21022 -0.071,-0.41135 -0.21928,-0.60339 -0.17688,-0.22895 -0.43117,-0.44411 -0.76298,-0.64538 l 0.30783,-0.42312 3.5945,2.09712 z" />
  <path
     inkscape:connector-curvature="0"
     id="path5724"
     style="font-size:32px;font-style:normal;font-variant:normal;font-weight:300;font-stretch:normal;text-align:start;line-height:125%;letter-spacing:0px;word-spacing:0px;writing-mode:lr-tb;text-anchor:start;fill:#000000;fill-opacity:1;stroke:none;font-family:Times New Roman;-inkscape-font-specification:Times New Roman"
     d="m 121.92448,313.50762 c -1.56552,-1.49787 -2.25355,-3.29507 -2.06413,-5.39161 0.16683,-1.78662 0.88034,-3.3385 2.14053,-4.65568 0.88576,-0.92574 2.00436,-1.65038 3.35575,-2.17385 1.35144,-0.52348 2.64709,-0.65341 3.88696,-0.3898 1.23989,0.26364 2.33777,0.85271 3.29363,1.76727 1.55801,1.49066 2.20204,3.2962 1.93207,5.41663 -0.22571,1.78791 -0.96148,3.33291 -2.2073,4.63502 -0.90734,0.94835 -2.0445,1.66602 -3.41146,2.15301 -1.36696,0.48698 -2.64853,0.58713 -3.84473,0.30044 -1.19617,-0.28669 -2.22327,-0.84053 -3.08132,-1.66143 z m 1.05209,-0.399 c 0.39894,0.38166 0.91315,0.64658 1.54264,0.79476 0.62953,0.14816 1.35292,0.0437 2.17018,-0.31317 0.81728,-0.35696 1.6724,-1.0021 2.56533,-1.93539 1.44025,-1.50532 2.38328,-3.0899 2.82908,-4.75375 0.44581,-1.66385 0.1795,-2.96385 -0.79897,-3.90002 -0.73007,-0.69851 -1.62026,-0.97354 -2.67054,-0.82506 -1.05025,0.14845 -2.27751,0.95653 -3.68176,2.42422 -1.75707,1.83649 -2.74456,3.65965 -2.96246,5.46949 -0.15691,1.23384 0.17859,2.24682 1.00649,3.03895 z" />
  <path
     inkscape:connector-curvature="0"
     id="path5726"
     style="font-size:32px;font-style:normal;font-variant:normal;font-weight:300;font-stretch:normal;text-align:start;line-height:125%;letter-spacing:0px;word-spacing:0px;writing-mode:lr-tb;text-anchor:start;fill:#000000;fill-opacity:1;stroke:none;font-family:Times New Roman;-inkscape-font-specification:Times New Roman"
     d="m 145.73855,307.53737 -1.98061,4.26573 3.03278,1.40815 -0.46061,0.99203 -3.03278,-1.40814 -3.9086,8.4181 c -0.39042,0.84087 -0.53317,1.46368 -0.42823,1.86842 0.10493,0.40475 0.34635,0.69486 0.72428,0.87034 0.31177,0.14475 0.65907,0.18829 1.04189,0.1306 0.38281,-0.0577 0.74226,-0.23822 1.07835,-0.54156 l 0.5527,0.25662 c -0.76058,0.77237 -1.55177,1.25201 -2.37358,1.43893 -0.82182,0.18692 -1.55396,0.13123 -2.19641,-0.16706 -0.43461,-0.2018 -0.80383,-0.51966 -1.10767,-0.9536 -0.30386,-0.43394 -0.4508,-0.92136 -0.44083,-1.46226 0.01,-0.54089 0.23208,-1.27902 0.66638,-2.21437 l 4.05336,-8.72988 -2.05493,-0.95412 0.21714,-0.46767 c 0.61614,0.0334 1.31099,-0.0718 2.08455,-0.31554 0.77356,-0.24377 1.53084,-0.60708 2.27186,-1.08994 0.38399,-0.25811 0.9912,-0.77437 1.82164,-1.54877 z" />
  <path
     inkscape:connector-curvature="0"
     id="path5728"
     style="font-size:32px;font-style:normal;font-variant:normal;font-weight:300;font-stretch:normal;text-align:start;line-height:125%;letter-spacing:0px;word-spacing:0px;writing-mode:lr-tb;text-anchor:start;fill:#000000;fill-opacity:1;stroke:none;font-family:Times New Roman;-inkscape-font-specification:Times New Roman"
     d="m 150.50696,321.98812 c -0.52062,2.06027 -0.42055,3.80199 0.30034,5.22519 0.72084,1.42321 1.7638,2.30373 3.12886,2.64159 0.91004,0.22522 1.7632,0.17077 2.55951,-0.1633 0.79629,-0.3341 1.5721,-1.05154 2.32745,-2.15232 l 0.39511,0.41972 c -0.55521,1.33274 -1.48422,2.44149 -2.78702,3.32628 -1.30282,0.8848 -2.7227,1.13698 -4.25964,0.7566 -1.66842,-0.41293 -2.93589,-1.4161 -3.8024,-3.00948 -0.86653,-1.59339 -1.02827,-3.4872 -0.48521,-5.68142 0.58811,-2.3762 1.65593,-4.07837 3.20347,-5.10649 1.54754,-1.02809 3.24146,-1.31441 5.08177,-0.85896 1.55716,0.38542 2.70928,1.21516 3.45632,2.48924 0.74702,1.27408 0.90781,2.77062 0.48239,4.48957 z m 0.21773,-0.8797 6.43097,1.59165 c 0.16963,-0.90233 0.21866,-1.55552 0.14698,-1.95959 -0.11266,-0.62879 -0.37919,-1.16694 -0.79961,-1.61439 -0.42045,-0.44743 -0.90368,-0.73873 -1.44971,-0.87388 -0.83925,-0.20771 -1.67075,-0.0674 -2.49447,0.42083 -0.82373,0.4883 -1.43511,1.30008 -1.83413,2.43538 z" />
  <path
     inkscape:connector-curvature="0"
     id="path5730"
     style="font-size:32px;font-style:normal;font-variant:normal;font-weight:300;font-stretch:normal;text-align:start;line-height:125%;letter-spacing:0px;word-spacing:0px;writing-mode:lr-tb;text-anchor:start;fill:#000000;fill-opacity:1;stroke:none;font-family:Times New Roman;-inkscape-font-specification:Times New Roman"
     d="m 176.17663,333.37477 c -0.76996,1.76367 -1.81092,3.02492 -3.1229,3.78375 -1.31199,0.75882 -2.63529,0.99601 -3.96989,0.71158 -1.58931,-0.33871 -2.83264,-1.3013 -3.73,-2.88777 -0.89737,-1.58647 -1.10396,-3.51566 -0.61977,-5.78756 0.46898,-2.20057 1.50461,-3.84904 3.10687,-4.94541 1.60225,-1.09634 3.32028,-1.44911 5.15411,-1.0583 1.37535,0.29312 2.42858,0.89835 3.15969,1.81567 0.73109,0.91734 1.01305,1.76824 0.84588,2.55269 -0.0825,0.38715 -0.27409,0.67382 -0.57471,0.86004 -0.30064,0.18623 -0.67508,0.23157 -1.12333,0.13602 -0.60109,-0.12809 -1.0132,-0.41827 -1.23632,-0.87056 -0.12761,-0.25085 -0.15537,-0.68279 -0.0833,-1.29583 0.0721,-0.61301 -0.0365,-1.11543 -0.32579,-1.50726 -0.29145,-0.38161 -0.753,-0.63974 -1.38463,-0.77437 -1.0188,-0.21711 -1.91926,-0.0149 -2.70138,0.6065 -1.038,0.82256 -1.73179,2.05394 -2.08134,3.69419 -0.3561,1.67081 -0.26032,3.2329 0.28732,4.68626 0.54762,1.45336 1.51932,2.32877 2.91506,2.62622 0.9984,0.21279 1.96767,0.0626 2.90781,-0.45067 0.66019,-0.34923 1.38654,-1.08375 2.17904,-2.20358 z" />
  <path
     inkscape:connector-curvature="0"
     id="path5732"
     style="font-size:32px;font-style:normal;font-variant:normal;font-weight:300;font-stretch:normal;text-align:start;line-height:125%;letter-spacing:0px;word-spacing:0px;writing-mode:lr-tb;text-anchor:start;fill:#000000;fill-opacity:1;stroke:none;font-family:Times New Roman;-inkscape-font-specification:Times New Roman"
     d="m 187.77646,321.78366 -0.65286,4.65758 3.31138,0.46416 -0.15182,1.08316 -3.31138,-0.46415 -1.28835,9.19139 c -0.12871,0.91811 -0.0839,1.5555 0.1343,1.91216 0.21822,0.35666 0.53365,0.56391 0.94629,0.62175 0.34041,0.0477 0.68535,-0.0118 1.03478,-0.17839 0.34943,-0.16665 0.64075,-0.44401 0.87396,-0.83206 l 0.60348,0.0846 c -0.50277,0.96034 -1.12004,1.64956 -1.85182,2.06765 -0.73179,0.41809 -1.44842,0.57797 -2.1499,0.47965 -0.47453,-0.0665 -0.9203,-0.26311 -1.33732,-0.58979 -0.41703,-0.32667 -0.69952,-0.75019 -0.84746,-1.27056 -0.14796,-0.52036 -0.15035,-1.29118 -0.007,-2.31245 l 1.33607,-9.53182 -2.24369,-0.3145 0.0716,-0.51063 c 0.59917,-0.1474 1.2333,-0.45034 1.90237,-0.90878 0.66907,-0.45842 1.28777,-1.02648 1.85609,-1.70417 0.29221,-0.35872 0.72281,-1.0294 1.29181,-2.01203 z" />
  <path
     inkscape:connector-curvature="0"
     id="path5734"
     style="font-size:32px;font-style:normal;font-variant:normal;font-weight:300;font-stretch:normal;text-align:start;line-height:125%;letter-spacing:0px;word-spacing:0px;writing-mode:lr-tb;text-anchor:start;fill:#000000;fill-opacity:1;stroke:none;font-family:Times New Roman;-inkscape-font-specification:Times New Roman"
     d="m 197.29188,320.07158 c 0.4375,3e-5 0.80989,0.15367 1.11719,0.46094 0.30728,0.30731 0.46093,0.67971 0.46094,1.11719 -1e-5,0.43752 -0.15366,0.81252 -0.46094,1.125 -0.3073,0.31252 -0.67969,0.46877 -1.11719,0.46875 -0.4375,2e-5 -0.8125,-0.15623 -1.125,-0.46875 -0.3125,-0.31248 -0.46875,-0.68748 -0.46875,-1.125 0,-0.43748 0.15364,-0.80988 0.46094,-1.11719 0.30729,-0.30727 0.68489,-0.46091 1.13281,-0.46094 z m 1.29688,7.48438 0,11.5 c -1e-5,0.89583 0.0651,1.49219 0.19531,1.78906 0.1302,0.29688 0.32291,0.51823 0.57812,0.66406 0.2552,0.14584 0.72135,0.21875 1.39844,0.21875 l 0,0.5625 -6.95312,0 0,-0.5625 c 0.69791,0 1.16666,-0.0677 1.40625,-0.20312 0.23958,-0.13542 0.42968,-0.35938 0.57031,-0.67188 0.14062,-0.3125 0.21093,-0.91145 0.21094,-1.79687 l 0,-5.51563 c -1e-5,-1.55207 -0.0469,-2.55728 -0.14063,-3.01562 -0.0729,-0.33332 -0.1875,-0.56509 -0.34375,-0.69531 -0.15625,-0.1302 -0.36979,-0.1953 -0.64062,-0.19532 -0.29167,2e-5 -0.64584,0.0781 -1.0625,0.23438 l -0.21875,-0.5625 4.3125,-1.75 z" />
  <path
     inkscape:connector-curvature="0"
     id="path5736"
     style="font-size:32px;font-style:normal;font-variant:normal;font-weight:300;font-stretch:normal;text-align:start;line-height:125%;letter-spacing:0px;word-spacing:0px;writing-mode:lr-tb;text-anchor:start;fill:#000000;fill-opacity:1;stroke:none;font-family:Times New Roman;-inkscape-font-specification:Times New Roman"
     d="m 212.41244,327.15716 c 2.12359,0.42981 3.66535,1.58146 4.6253,3.45494 0.81345,1.59941 1.03939,3.29246 0.67778,5.07914 -0.25417,1.25579 -0.81263,2.46593 -1.67534,3.63043 -0.86275,1.16451 -1.88858,1.96653 -3.07753,2.40607 -1.18895,0.43955 -2.43173,0.52811 -3.72835,0.26568 -2.1134,-0.42774 -3.62241,-1.60995 -4.52703,-3.54664 -0.76438,-1.63198 -0.96782,-3.3311 -0.61034,-5.09738 0.26036,-1.2864 0.83823,-2.50059 1.7336,-3.64255 0.89536,-1.14195 1.92521,-1.91127 3.08955,-2.30798 1.16433,-0.3967 2.32844,-0.47727 3.49236,-0.24171 z m -0.67623,0.89935 c -0.54112,-0.1095 -1.11733,-0.0587 -1.72862,0.1523 -0.61132,0.21107 -1.16706,0.68578 -1.66721,1.42414 -0.50017,0.73838 -0.87836,1.74057 -1.13459,3.00656 -0.41328,2.04193 -0.36389,3.88523 0.14815,5.5299 0.51204,1.64468 1.43168,2.60133 2.75895,2.86997 0.99032,0.20043 1.88976,-0.0427 2.69829,-0.72923 0.80849,-0.68659 1.41423,-2.02533 1.81718,-4.01622 0.50419,-2.49114 0.36492,-4.55988 -0.41778,-6.20621 -0.52653,-1.12682 -1.35131,-1.80389 -2.47437,-2.03121 z" />
  <path
     inkscape:connector-curvature="0"
     id="path5738"
     style="font-size:32px;font-style:normal;font-variant:normal;font-weight:300;font-stretch:normal;text-align:start;line-height:125%;letter-spacing:0px;word-spacing:0px;writing-mode:lr-tb;text-anchor:start;fill:#000000;fill-opacity:1;stroke:none;font-family:Times New Roman;-inkscape-font-specification:Times New Roman"
     d="m 228.26759,328.73048 c 1.51498,-2.14502 3.03058,-3.27664 4.54683,-3.39483 0.77888,-0.0607 1.4639,0.0818 2.05506,0.42755 0.59114,0.34574 1.08768,0.95221 1.48963,1.81942 0.27703,0.60532 0.46574,1.55185 0.56612,2.8396 l 0.47474,6.09091 c 0.0704,0.90351 0.19085,1.51056 0.36136,1.82117 0.13446,0.25073 0.33458,0.43887 0.60036,0.56443 0.26575,0.12557 0.74135,0.16163 1.42678,0.1082 l 0.0437,0.5608 -7.05672,0.55002 -0.0437,-0.5608 0.29598,-0.0231 c 0.66464,-0.0518 1.12148,-0.18928 1.37053,-0.41243 0.24903,-0.22315 0.41009,-0.53609 0.4832,-0.93882 0.0294,-0.15902 0.0121,-0.64874 -0.0518,-1.46917 l -0.45531,-5.84166 c -0.1012,-1.29813 -0.34341,-2.22743 -0.72665,-2.7879 -0.38326,-0.56044 -0.97471,-0.8095 -1.77436,-0.7472 -1.23584,0.0964 -2.41387,0.8673 -3.53409,2.31287 l 0.58644,7.52406 c 0.0753,0.96582 0.17895,1.55852 0.31099,1.77808 0.16885,0.28984 0.38596,0.49494 0.65134,0.61532 0.26535,0.12036 0.78748,0.15019 1.56638,0.0895 l 0.0437,0.5608 -7.05673,0.55001 -0.0437,-0.5608 0.31156,-0.0243 c 0.72696,-0.0567 1.20329,-0.27924 1.42899,-0.66774 0.2257,-0.3885 0.29808,-1.10202 0.21714,-2.14054 l -0.41281,-5.29643 c -0.13357,-1.71355 -0.25389,-2.75422 -0.36088,-3.12203 -0.10701,-0.36778 -0.24629,-0.61291 -0.41779,-0.73538 -0.17149,-0.12245 -0.39224,-0.17315 -0.66225,-0.15213 -0.29079,0.0227 -0.63263,0.12765 -1.02551,0.31502 l -0.27737,-0.54258 4.16348,-2.07982 0.66984,-0.0522 z" />
  <path
     inkscape:connector-curvature="0"
     id="path5740"
     style="font-size:32px;font-style:normal;font-variant:normal;font-weight:300;font-stretch:normal;text-align:start;line-height:125%;letter-spacing:0px;word-spacing:0px;writing-mode:lr-tb;text-anchor:start;fill:#000000;fill-opacity:1;stroke:none;font-family:Times New Roman;-inkscape-font-specification:Times New Roman"
     d="m 266.11504,303.32559 4.6529,5.51997 -0.39047,0.28663 c -1.79658,-1.35601 -3.45817,-2.06165 -4.98476,-2.11696 -1.5266,-0.0552 -2.96586,0.41332 -4.31779,1.40571 -1.13361,0.83217 -1.94694,1.87179 -2.43999,3.11884 -0.49305,1.24711 -0.53968,2.69306 -0.1399,4.33786 0.39979,1.64484 1.28697,3.40352 2.66156,5.27606 1.13417,1.54508 2.36505,2.70258 3.69263,3.4725 1.32758,0.76995 2.7108,1.09198 4.14967,0.96613 1.43886,-0.12583 2.79648,-0.65723 4.07284,-1.59417 1.10841,-0.81364 1.91254,-1.76897 2.4124,-2.86598 0.49982,-1.09699 0.73999,-2.72378 0.72049,-4.88036 l 0.57539,-0.0347 c 0.25917,2.14863 0.0767,3.99477 -0.54757,5.53842 -0.62423,1.54368 -1.72148,2.89185 -3.29172,4.04452 -2.82984,2.07729 -5.79199,2.63646 -8.88646,1.67752 -2.30532,-0.71122 -4.23464,-2.12486 -5.78798,-4.24095 -1.2513,-1.70459 -2.01882,-3.55112 -2.30258,-5.53958 -0.28374,-1.98841 -0.0441,-3.86678 0.71888,-5.63509 0.76301,-1.76827 1.93804,-3.23492 3.52509,-4.39995 1.23437,-0.90609 2.67386,-1.49758 4.31846,-1.77447 0.48829,-0.0741 0.808,-0.16668 0.95916,-0.27766 0.22671,-0.1664 0.36551,-0.391 0.41631,-0.67388 0.0519,-0.38697 -0.0239,-0.81588 -0.22741,-1.28678 z" />
  <path
     inkscape:connector-curvature="0"
     id="path5742"
     style="font-size:32px;font-style:normal;font-variant:normal;font-weight:300;font-stretch:normal;text-align:start;line-height:125%;letter-spacing:0px;word-spacing:0px;writing-mode:lr-tb;text-anchor:start;fill:#000000;fill-opacity:1;stroke:none;font-family:Times New Roman;-inkscape-font-specification:Times New Roman"
     d="m 272.01152,299.25823 c 0.35891,-0.25018 0.75226,-0.3371 1.18007,-0.26078 0.42782,0.0763 0.76683,0.29399 1.01702,0.65286 0.2502,0.35892 0.33862,0.75442 0.26525,1.18649 -0.0733,0.4321 -0.28949,0.77325 -0.6484,1.02343 -0.35888,0.25021 -0.75586,0.33649 -1.19094,0.25884 -0.43507,-0.0776 -0.77769,-0.2959 -1.02791,-0.65481 -0.25019,-0.35887 -0.33712,-0.75223 -0.26078,-1.18007 0.0763,-0.4278 0.29826,-0.76978 0.66569,-1.02596 z m 5.34407,5.39803 6.57667,9.43383 c 0.51232,0.73489 0.90677,1.18686 1.18337,1.35594 0.27658,0.16908 0.56126,0.24045 0.85401,0.21413 0.29275,-0.0263 0.71685,-0.23308 1.27229,-0.62031 l 0.32168,0.46144 -5.70388,3.97639 -0.32168,-0.46144 c 0.57252,-0.39912 0.91833,-0.72273 1.03744,-0.97084 0.11908,-0.2481 0.14695,-0.54053 0.0836,-0.87732 -0.0633,-0.33677 -0.34821,-0.86832 -0.85456,-1.59467 l -3.15431,-4.52466 c -0.88761,-1.2732 -1.50094,-2.07099 -1.83995,-2.39338 -0.25043,-0.23175 -0.47698,-0.35634 -0.67963,-0.3738 -0.20264,-0.0173 -0.41504,0.0513 -0.63722,0.20613 -0.23926,0.16682 -0.48514,0.43342 -0.73757,0.7999 l -0.50113,-0.33634 2.53689,-3.90184 z" />
  <path
     inkscape:connector-curvature="0"
     id="path5744"
     style="font-size:32px;font-style:normal;font-variant:normal;font-weight:300;font-stretch:normal;text-align:start;line-height:125%;letter-spacing:0px;word-spacing:0px;writing-mode:lr-tb;text-anchor:start;fill:#000000;fill-opacity:1;stroke:none;font-family:Times New Roman;-inkscape-font-specification:Times New Roman"
     d="m 281.03229,302.24768 5.05392,-4.45081 0.38209,0.43387 -0.32833,0.28915 c -0.30487,0.26851 -0.47202,0.54761 -0.5015,0.83723 -0.0294,0.28968 0.066,0.55959 0.28629,0.80973 0.24095,0.27362 0.60875,0.52574 1.10336,0.7564 l 7.72296,3.73377 -2.91215,-8.36607 c -0.20574,-0.59609 -0.40842,-1.0075 -0.60808,-1.23423 -0.0964,-0.10942 -0.20684,-0.17177 -0.33132,-0.18708 -0.18926,-0.0415 -0.36927,-0.0253 -0.54003,0.0488 -0.17077,0.074 -0.45937,0.2901 -0.86586,0.64808 l -0.38209,-0.43386 3.50608,-3.08769 0.38209,0.43387 c -0.37895,0.3893 -0.5881,0.7192 -0.62741,0.98977 -0.067,0.4755 0.0313,1.08321 0.29393,1.82318 l 4.30583,12.57284 -0.48077,0.42339 -11.81695,-5.68738 c -0.54374,-0.27067 -0.97468,-0.42902 -1.29282,-0.47505 -0.31812,-0.046 -0.65344,-0.0249 -1.00593,0.0635 -0.19482,0.0467 -0.51524,0.21088 -0.9612,0.49254 z" />
  <path
     inkscape:connector-curvature="0"
     id="path5746"
     style="font-size:32px;font-style:normal;font-variant:normal;font-weight:300;font-stretch:normal;text-align:start;line-height:125%;letter-spacing:0px;word-spacing:0px;writing-mode:lr-tb;text-anchor:start;fill:#000000;fill-opacity:1;stroke:none;font-family:Times New Roman;-inkscape-font-specification:Times New Roman"
     d="m 291.8185,282.2515 c 0.30446,-0.31417 0.67394,-0.47469 1.10845,-0.48157 0.43452,-0.007 0.80889,0.14197 1.12309,0.4464 0.31419,0.30446 0.47659,0.67577 0.48717,1.11389 0.0106,0.43817 -0.13633,0.81433 -0.44078,1.12852 -0.30443,0.3142 -0.6776,0.47478 -1.1195,0.48174 -0.44187,0.007 -0.81992,-0.14176 -1.13412,-0.44622 -0.31419,-0.30443 -0.47472,-0.67391 -0.48158,-1.10845 -0.007,-0.43451 0.1456,-0.8126 0.45727,-1.13431 z m 6.27747,4.27682 8.25889,8.00255 c 0.64334,0.62339 1.11693,0.99163 1.42074,1.1047 0.30382,0.11308 0.59688,0.12872 0.87921,0.0469 0.28232,-0.0818 0.65906,-0.36582 1.13023,-0.85208 l 0.40398,0.39143 -4.8385,4.99348 -0.40397,-0.39143 c 0.48565,-0.50121 0.76323,-0.88497 0.8327,-1.15127 0.0695,-0.26629 0.0409,-0.55866 -0.0857,-0.87712 -0.12657,-0.31845 -0.50778,-0.78573 -1.14365,-1.40188 l -3.96113,-3.83819 c -1.11465,-1.08003 -1.86919,-1.74586 -2.26357,-1.99749 -0.29011,-0.17959 -0.5363,-0.25858 -0.73855,-0.23698 -0.20224,0.0216 -0.39759,0.12966 -0.58607,0.32415 -0.20295,0.20949 -0.39333,0.51817 -0.57104,0.92615 l -0.55619,-0.23434 1.74417,-4.31485 z" />
  <path
     inkscape:connector-curvature="0"
     id="path5748"
     style="font-size:32px;font-style:normal;font-variant:normal;font-weight:300;font-stretch:normal;text-align:start;line-height:125%;letter-spacing:0px;word-spacing:0px;writing-mode:lr-tb;text-anchor:start;fill:#000000;fill-opacity:1;stroke:none;font-family:Times New Roman;-inkscape-font-specification:Times New Roman"
     d="m 298.55453,273.59249 14.16334,12.64147 c 0.66833,0.59652 1.15465,0.94332 1.45896,1.0404 0.30429,0.0971 0.60296,0.0949 0.896,-0.007 0.29302,-0.10147 0.68577,-0.42809 1.17825,-0.97987 l 0.41966,0.37457 -4.67162,5.23402 -0.41966,-0.37457 c 0.43699,-0.48959 0.68475,-0.86884 0.74325,-1.13776 0.0585,-0.26891 0.0162,-0.55793 -0.12669,-0.86705 -0.14297,-0.30911 -0.54473,-0.75846 -1.20531,-1.34805 l -9.69867,-8.65655 c -1.20455,-1.07512 -1.96908,-1.70856 -2.2935,-1.90045 -0.32442,-0.19184 -0.59091,-0.2726 -0.79947,-0.24233 -0.20853,0.0303 -0.39604,0.13869 -0.56251,0.32519 -0.18034,0.20207 -0.34711,0.51398 -0.50019,0.93583 l -0.58489,-0.16598 1.53485,-4.34769 z" />
  <path
     inkscape:connector-curvature="0"
     id="path5750"
     style="font-size:32px;font-style:normal;font-variant:normal;font-weight:300;font-stretch:normal;text-align:start;line-height:125%;letter-spacing:0px;word-spacing:0px;writing-mode:lr-tb;text-anchor:start;fill:#000000;fill-opacity:1;stroke:none;font-family:Times New Roman;-inkscape-font-specification:Times New Roman"
     d="m 314.80874,275.98183 c 1.66148,1.32485 3.28913,1.95284 4.88299,1.88393 1.59386,-0.0689 2.82646,-0.65524 3.6978,-1.75902 0.58088,-0.73584 0.88358,-1.53536 0.90808,-2.39857 0.0245,-0.86319 -0.30861,-1.86601 -0.99929,-3.00847 l 0.54541,-0.18656 c 0.98458,1.05596 1.61083,2.35988 1.87876,3.91177 0.26792,1.5519 -0.0887,2.94923 -1.0697,4.19199 -1.06497,1.34906 -2.50196,2.08924 -4.31097,2.22055 -1.80901,0.13131 -3.60063,-0.50333 -5.37484,-1.90393 -1.92137,-1.51675 -3.03077,-3.19213 -3.32818,-5.0261 -0.29741,-1.83395 0.14124,-3.49495 1.31591,-4.98302 0.99398,-1.2591 2.22539,-1.96582 3.69424,-2.12015 1.46885,-0.1543 2.89825,0.31716 4.28818,1.41438 z m -0.71132,-0.56153 4.10496,-5.19999 c -0.75177,-0.52709 -1.32645,-0.84141 -1.72407,-0.94296 -0.61921,-0.15702 -1.21939,-0.13646 -1.80051,0.0617 -0.58112,0.19819 -1.04596,0.51804 -1.39449,0.95954 -0.53571,0.67862 -0.75126,1.49385 -0.64667,2.44567 0.10461,0.95186 0.59153,1.84386 1.46078,2.67604 z" />
  <text
     xml:space="preserve"
     style="font-size:40px;font-style:normal;font-variant:normal;font-weight:300;font-stretch:normal;text-align:start;line-height:125%;letter-spacing:0px;word-spacing:0px;writing-mode:lr-tb;text-anchor:start;fill:#000000;fill-opacity:1;stroke:none;font-family:Tifinaghe-Tazirit;-inkscape-font-specification:Tifinaghe-Tazirit Light"
     x="-302.85849"
     y="502.79504"
     id="text5768"
     sodipodi:linespacing="125%"><tspan
       sodipodi:role="line"
       id="tspan5770"
       x="-302.85849"
       y="502.79504"> الحماية المدنية </tspan></text>
  <g
     style="font-size:40px;font-style:normal;font-variant:normal;font-weight:300;font-stretch:normal;text-align:start;line-height:125%;letter-spacing:0px;word-spacing:0px;writing-mode:lr-tb;text-anchor:start;fill:#000000;fill-opacity:1;stroke:none;font-family:Times New Roman;-inkscape-font-specification:Times New Roman"
     id="text5772"
     transform="translate(489.72513,-462.2932)">
    <path
       d="m -164.77187,632.82739 c -0.99615,0.30462 -2.01635,0.41917 -3.06065,0.34367 -0.55519,-0.0344 -1.46961,-0.19734 -2.7433,-0.48864 l 0.084,-0.39331 c 0.3725,-0.0731 0.80012,-0.1664 1.2828,-0.27997 0.48267,-0.11356 0.80494,-0.1951 0.96683,-0.2446 1.29496,-0.39601 3.07214,-1.05182 5.33154,-1.96742 2.25939,-0.91561 4.60913,-1.9031 7.04925,-2.96246 1.47822,-0.64269 2.98188,-1.31357 4.51098,-2.01265 0.62399,0.0815 1.30207,0.18392 2.03424,0.30721 0.73209,0.12337 1.4221,0.24254 2.07004,0.35753 -1.35859,0.63332 -3.22393,1.47948 -5.59603,2.53849 -2.37215,1.05902 -4.52147,1.9784 -6.44795,2.75816 -2.39689,0.97807 -4.22413,1.6594 -5.48173,2.04399 z"
       id="path5777"
       inkscape:connector-curvature="0" />
    <path
       d="m -173.26439,623.33449 -2.79633,-9.23433 3.25257,-0.98495 2.22461,7.34634 15.17803,-7.02465 0.17295,-1.11356 c 0.85986,-0.26038 1.68939,-0.42997 2.48866,-0.50872 0.79921,-0.0788 1.59929,-0.0761 2.40021,0.008 l -0.12069,0.34266 c -0.72283,0.21888 -1.14227,0.78805 -1.25835,1.70751 -0.0606,0.69857 -0.11925,1.40338 -0.176,2.11442 -0.62313,0.18869 -1.30494,0.34073 -2.04543,0.45615 -0.74056,0.11539 -1.30603,0.15738 -1.69646,0.12597 l 0.0274,-0.98783 -13.98734,6.64368 z"
       id="path5779"
       inkscape:connector-curvature="0" />
    <path
       d="m -175.52054,615.16398 c -2.79603,-6.81831 -11.97504,-20.38997 -15.79689,-27.20829 l 2.01378,-2.26488 c 5.18047,6.27482 9.34903,13.81451 13.51179,21.36147 0.37268,-1.63804 0.62659,-2.99107 0.76175,-4.05912 0.1717,-1.32915 0.20744,-2.48739 0.10731,-3.47473 -0.11418,-1.11008 -0.39911,-2.15509 -0.85482,-3.13504 -0.28003,-0.60213 -0.60413,-1.19095 -0.97226,-1.76646 1.0329,-0.0639 1.94404,0.058 2.73341,0.36585 1.14077,0.44597 1.99667,1.28288 2.56771,2.51076 0.56003,1.20428 0.63131,2.90151 0.21385,5.09167 -0.2115,1.08919 -0.71544,2.93903 -1.51182,5.54954 -0.62258,2.02707 -0.86894,3.31914 -0.73909,3.87626 l 0.77048,1.89158 z"
       id="path5781"
       inkscape:connector-curvature="0"
       sodipodi:nodetypes="ccccccccccccccc" />
    <path
       d="m -191.51333,588.12145 -1.32328,-1.54107 c -0.56835,-0.66187 -1.0606,-1.53495 -1.47676,-2.61922 -0.47707,-1.25514 -0.72815,-2.50693 -0.75326,-3.75537 -1.19338,0.0293 -2.1825,-0.13825 -2.96735,-0.50265 -0.78486,-0.36438 -1.66928,-1.11954 -2.65326,-2.26547 l -1.98491,-2.3116 2.57832,-2.21395 1.94675,2.26715 c 0.77191,0.89897 1.68621,1.50403 2.7429,1.81522 0.82216,0.23796 1.74516,0.30352 2.76901,0.19668 1.38674,-0.1438 2.77865,-0.0519 4.17573,0.27595 1.25155,0.29832 2.24053,0.71055 2.96693,1.23668 -0.45197,1.5723 -0.91897,2.91723 -1.40096,4.0348 -0.65966,1.51033 -1.34017,2.56663 -2.04153,3.1689 z m 1.4559,-4.21066 c 0.46268,-0.62042 0.85611,-1.3015 1.1803,-2.04325 0.26917,-0.62589 0.48958,-1.33858 0.6612,-2.13811 -0.52574,-0.37238 -1.09155,-0.58161 -1.69746,-0.62768 -0.39408,-0.0392 -0.96532,0.005 -1.71371,0.13284 -0.0799,0.68645 0.005,1.48469 0.25419,2.39471 0.24936,0.91 0.58546,1.68118 1.00831,2.31351 z"
       id="path5783"
       inkscape:connector-curvature="0" />
    <path
       d="m -202.60769,575.18876 c -9.43511,-8.00006 -18.19245,-16.20204 -31.99788,-22.31883 -0.83895,-0.28306 -1.39687,-0.84922 -1.67373,-1.69846 -0.24435,-0.74206 -0.2829,-1.73762 -0.11567,-2.98669 0.16722,-1.24907 0.47847,-2.75187 0.93373,-4.50842 0.39639,-1.41909 0.80214,-2.87626 1.21733,-4.37149 0.41521,-1.49519 0.68601,-2.64403 0.81249,-3.44652 0.12646,-0.80244 0.15983,-1.48171 0.10012,-2.03783 -0.0716,-0.68375 -0.27308,-1.3289 -0.60437,-1.93542 l 3.48765,-2.82216 c -0.0184,1.64287 -0.27648,3.52777 -0.77425,5.65471 -0.30958,1.32474 -1.21026,4.40138 -2.70205,9.22994 -0.51892,2.271 -0.67271,3.7857 -0.46136,4.54411 0.17059,0.63474 0.46648,1.00154 0.86661,1.15816 15.06902,5.89828 24.19458,14.63909 33.42545,23.32953 z"
       id="path5785"
       inkscape:connector-curvature="0"
       sodipodi:nodetypes="cccscccccccccscc" />
    <path
       d="m -245.82905,548.06015 -10.55717,-3.53352 1.07865,-3.22271 9.20512,3.08099 c 0.48765,-1.45701 0.68674,-2.62615 0.59725,-3.50743 -0.0569,-0.60945 -0.38101,-1.56924 -0.97232,-2.87936 l 2.45514,-2.53545 c 0.51292,1.42121 0.77514,2.48385 0.78663,3.18796 0.0152,1.06236 -0.34508,2.69246 -1.0807,4.89032 z m -1.33248,3.67326 -2.33735,2.18354 -2.46732,-2.59709 2.27557,-2.18362 z m -4.81784,0.24112 -2.30649,2.21446 -2.47974,-2.56007 2.26947,-2.22685 z"
       id="path5787"
       inkscape:connector-curvature="0" />
    <path
       d="m -260.42274,519.91591 -1.7924,2.64921 -2.98372,-1.98244 1.73217,-2.63553 z m -4.64316,1.30794 -1.75545,2.67248 -2.98756,-1.94356 1.71658,-2.67632 z m 9.18153,23.42887 -4.69353,-1.29881 c -0.93298,-0.0921 -1.67713,-0.97024 -2.23243,-2.63443 -0.41358,-1.24456 -0.68959,-2.82228 -0.82802,-4.73316 -0.4604,0.68727 -1.00844,1.20232 -1.64415,1.54515 -0.63573,0.34286 -1.28401,0.48165 -1.94486,0.4164 -1.49015,-0.14712 -2.72094,-0.37003 -3.69238,-0.66876 -0.97146,-0.29871 -1.44182,-0.60356 -1.41112,-0.91456 0.11003,-1.11436 0.95752,-2.27695 2.54248,-3.48777 1.58496,-1.21079 3.5158,-2.21408 5.79251,-3.00988 -0.0156,-0.1062 -0.0439,-0.38376 -0.0846,-0.83266 -0.0407,-0.44885 -0.056,-0.72513 -0.0457,-0.82881 0.0435,-0.44055 0.24112,-0.91824 0.59288,-1.43306 0.28969,-0.41624 0.65841,-0.83778 1.10618,-1.26462 0.0502,0.8162 0.1063,1.60678 0.16817,2.37175 0.0618,0.76501 0.14381,1.55815 0.24592,2.37942 l 0.25303,3.40069 c 0.14227,1.87202 0.29949,3.26137 0.47167,4.16808 0.26862,1.38727 0.61675,2.10203 1.04437,2.14424 l 5.26644,1.44882 z m -7.83971,-10.38235 -0.16012,-2.15506 c -1.167,0.29041 -2.09588,0.62066 -2.78662,0.99076 -0.69075,0.37014 -1.2916,0.88979 -1.80252,1.55896 0.2606,0.1435 0.56911,0.26555 0.92554,0.36615 0.35642,0.10061 0.85209,0.1823 1.48704,0.24489 0.77746,0.0768 1.55636,-0.25847 2.33668,-1.00575 z"
       id="path5789"
       inkscape:connector-curvature="0"
       sodipodi:nodetypes="cccccccccccccccsccscscccccccccccccccccc" />
    <path
       d="m -310.70752,538.0682 c 0.32064,0.9911 0.45163,2.00933 0.39296,3.05471 -0.0255,0.55567 -0.17362,1.47261 -0.44436,2.75081 l -0.39461,-0.0776 c -0.079,-0.37129 -0.17923,-0.79733 -0.3006,-1.27811 -0.12128,-0.4808 -0.20808,-0.80169 -0.26018,-0.96275 -0.41684,-1.28841 -1.10121,-3.05478 -2.05312,-5.29914 -0.9519,-2.24433 -1.97715,-4.57786 -3.07571,-7.00058 -0.66643,-1.46766 -1.36146,-2.96031 -2.0851,-4.47794 0.0714,-0.62523 0.16288,-1.30488 0.27438,-2.03893 0.1115,-0.73399 0.21954,-1.42584 0.32412,-2.07554 0.65514,1.3482 1.53126,3.19967 2.62836,5.55438 1.09711,2.35478 2.05103,4.48899 2.86175,6.40264 1.01658,2.38082 1.72727,4.19685 2.13209,5.44808 z"
       id="path5791"
       inkscape:connector-curvature="0" />
    <path
       d="m -315.229,544.77516 c -8.89574,1.82277 -16.27884,4.40185 -23.35148,7.13617 l -1.50891,-2.98479 c 10.10503,-4.72848 8.06878,-2.86154 21.5276,-7.47917 l -6.40708,-14.61759 -1.11198,-0.18279 c -0.25281,-0.8621 -0.41508,-1.69311 -0.48679,-2.49304 -0.0717,-0.79987 -0.0621,-1.59989 0.029,-2.40004 l 0.34159,0.12372 c 0.2125,0.72473 0.77795,1.14917 1.69636,1.27335 0.69801,0.0667 1.40227,0.1316 2.11278,0.19462 0.18319,0.62476 0.32921,1.30789 0.4381,2.04937 0.10888,0.74154 0.14589,1.30737 0.11104,1.6975 l -0.98756,-0.0361 6.52021,14.04532 z"
       id="path5793"
       inkscape:connector-curvature="0"
       sodipodi:nodetypes="ccccccsccccccccc" />
    <path
       d="m -338.36845,551.77517 -1.74261,1.04368 c -0.74844,0.44827 -1.69218,0.78583 -2.8312,1.01268 -1.31772,0.25799 -2.59394,0.29382 -3.82867,0.1075 -0.17288,1.18115 -0.50525,2.1277 -0.99708,2.83964 -0.49184,0.71196 -1.38565,1.45598 -2.68145,2.23204 -4.38253,2.78223 -8.32018,5.34201 -12.18828,7.86703 l -2.2835,-2.52473 c 4.15722,-2.76689 6.96303,-5.17755 11.25874,-7.93462 0.99718,-0.64 3.18409,-1.70073 3.66944,-2.6896 0.37353,-0.7701 0.5942,-1.66872 0.66202,-2.6959 0.0926,-1.3911 0.41864,-2.74742 0.97796,-4.06896 0.50561,-1.18309 1.07911,-2.08814 1.7205,-2.71514 1.47324,0.7113 2.71986,1.39896 3.73984,2.06296 1.37707,0.9055 2.30311,1.75481 2.77813,2.5479 z m -3.90391,-2.14683 c -0.53325,-0.56091 -1.13802,-1.06383 -1.81427,-1.50876 -0.57137,-0.37112 -1.23655,-0.70884 -1.99554,-1.01316 -0.45592,0.4552 -0.75779,0.9775 -0.90564,1.56689 -0.10526,0.38178 -0.15819,0.95229 -0.15879,1.71151 0.66306,0.19481 1.46413,0.24625 2.4032,0.15432 0.93906,-0.0919 1.75597,-0.2928 2.4507,-0.60266 z"
       id="path5795"
       inkscape:connector-curvature="0"
       sodipodi:nodetypes="ccccscccsccccccccccccccc" />
    <path
       d="m -362.41154,566.81437 -6.40866,5.95748 c -0.5436,0.50533 -1.17862,0.80232 -1.90511,0.89097 -0.72647,0.0887 -1.28917,-0.0816 -1.68812,-0.51074 -0.33687,-0.36238 -0.62368,-0.7091 -0.86035,-1.04022 -0.23666,-0.3311 -0.46658,-0.72182 -0.68969,-1.17221 l 0.32901,-0.30585 c 0.4684,0.2935 0.92066,0.39752 1.35679,0.31209 0.36186,-0.0697 0.74307,-0.29074 1.14361,-0.6631 l 5.53605,-5.1463 c -1.58689,-1.70705 -3.10191,-2.85871 -4.54506,-3.45496 -1.79696,-0.74732 -3.58632,-0.69284 -5.36808,0.16346 l -2.36522,-2.97465 c 2.4034,-0.72305 4.77289,-0.51683 7.10848,0.61868 1.88292,0.91634 3.89708,2.52844 6.04249,4.83629 z"
       id="path5797"
       inkscape:connector-curvature="0" />
    <path
       d="m -394.12467,573.00283 1.53787,2.80334 -3.11721,1.72801 -1.55947,-2.77081 z m 15.91396,8.6938 c -5.81209,7.08582 -11.42956,14.09714 -14.72557,22.26129 l -3.52175,-2.01838 c 3.40546,-7.17453 8.46125,-14.12902 14.62757,-20.93543 -1.27988,-0.85005 -2.35693,-1.34655 -3.23112,-1.4895 -0.60326,-0.10367 -1.61433,-0.0405 -3.03319,0.18944 l -1.80911,-3.0304 c 1.50572,-0.12537 2.59999,-0.10198 3.28282,0.0702 1.02969,0.26186 2.50987,1.03392 4.44054,2.3162 z"
       id="path5799"
       inkscape:connector-curvature="0"
       sodipodi:nodetypes="cccccccccccccsc" />
    <path
       d="m -392.62556,603.27968 c -4.62086,8.55007 -8.88887,17.26052 -12.08547,26.45798 l -3.134,-0.81273 c 2.81705,-8.63707 6.90025,-17.18371 11.53435,-25.69099 -1.40932,-0.61193 -2.55684,-0.91147 -3.44256,-0.89859 -0.61209,0.004 -1.59633,0.24376 -2.95272,0.71944 l -2.31342,-2.66537 c 1.46027,-0.38799 2.54162,-0.55724 3.24408,-0.50775 1.05966,0.077 2.65248,0.57683 4.77843,1.49993 z m 3.54414,1.64542 1.97304,2.51757 -2.80091,2.23328 -1.97846,-2.45604 z m -0.17679,4.82063 2.0065,2.48952 -2.76508,2.24882 -2.02207,-2.45368 z"
       id="path5801"
       inkscape:connector-curvature="0"
       sodipodi:nodetypes="ccccccccsccccccccccc" />
    <path
       d="m -428.35504,628.70769 2.38476,2.13166 -2.36485,2.69074 -2.37928,-2.07013 z m 0.67312,4.77668 2.41278,2.09815 -2.32684,2.69977 -2.4218,-2.06014 z m 23.177,-4.19564 -0.64487,2.71751 c -0.21645,0.91218 -1.1865,1.53177 -2.91014,1.85877 -1.2888,0.24285 -2.88929,0.30468 -4.80147,0.18547 0.61929,0.54843 1.05615,1.16063 1.31059,1.83659 0.25445,0.67599 0.30501,1.33703 0.15168,1.98314 -0.34573,1.45694 -0.73177,2.64671 -1.15813,3.56928 -0.42636,0.92258 -0.79157,1.34779 -1.09563,1.27564 -1.08953,-0.25855 -2.12788,-1.25437 -3.11509,-2.98747 -0.98719,-1.73308 -1.72234,-3.78109 -2.20547,-6.14398 -0.10731,7.9e-4 -0.38618,-0.008 -0.83649,-0.0278 -0.45024,-0.0201 -0.72608,-0.0418 -0.82745,-0.0659 -0.43073,-0.10219 -0.87758,-0.36214 -1.34055,-0.77981 -0.3736,-0.34292 -0.74186,-0.76486 -1.10477,-1.26584 0.81556,0.0597 1.60652,0.11024 2.37288,0.15155 0.76637,0.0414 1.56335,0.0666 2.3909,0.0756 l 3.4039,0.20529 c 1.87415,0.11062 3.27206,0.14075 4.19368,0.0918 1.41077,-0.0801 2.16577,-0.32913 2.26497,-0.74724 l 0.64487,-2.7175 z m -10.06841,4.61645 -2.15709,-0.13002 c 0.13121,1.19541 0.33385,2.1602 0.60792,2.89435 0.27411,0.73417 0.70844,1.39931 1.30301,1.99539 0.17716,-0.23898 0.33951,-0.52833 0.48702,-0.86804 0.14752,-0.33969 0.29498,-0.81993 0.4422,-1.44073 0.1804,-0.76013 -0.0473,-1.57696 -0.68313,-2.45051 z"
       id="path5803"
       inkscape:connector-curvature="0" />
  </g>
</svg>
